<mxfile host="app.diagrams.net" modified="2024-05-28T16:56:08.371Z" agent="Mozilla/5.0 (Windows NT 10.0; Win64; x64) AppleWebKit/537.36 (KHTML, like Gecko) Chrome/125.0.0.0 Safari/537.36" etag="nCa0cbrXmqsGVxuuYOKT" version="24.4.9" type="device">
  <diagram name="Страница — 1" id="nbYlH-FD88O8HOATAjZh">
    <mxGraphModel dx="2286" dy="1172" grid="0" gridSize="10" guides="1" tooltips="1" connect="1" arrows="1" fold="1" page="0" pageScale="1" pageWidth="827" pageHeight="1169" math="0" shadow="0">
      <root>
        <mxCell id="0" />
        <mxCell id="1" parent="0" />
        <mxCell id="6_WvhmP-etYB8GviKGAq-6" style="edgeStyle=none;curved=1;rounded=0;orthogonalLoop=1;jettySize=auto;html=1;exitX=0.5;exitY=1;exitDx=0;exitDy=0;entryX=0.5;entryY=0;entryDx=0;entryDy=0;fontSize=12;startSize=8;endSize=8;" edge="1" parent="1" source="6_WvhmP-etYB8GviKGAq-1" target="6_WvhmP-etYB8GviKGAq-5">
          <mxGeometry relative="1" as="geometry" />
        </mxCell>
        <mxCell id="6_WvhmP-etYB8GviKGAq-1" value="" style="rounded=1;whiteSpace=wrap;html=1;" vertex="1" parent="1">
          <mxGeometry x="75" y="-63" width="120" height="60" as="geometry" />
        </mxCell>
        <mxCell id="6_WvhmP-etYB8GviKGAq-2" value="Старт" style="text;html=1;align=center;verticalAlign=middle;whiteSpace=wrap;rounded=0;fontSize=16;" vertex="1" parent="1">
          <mxGeometry x="102" y="-48" width="60" height="30" as="geometry" />
        </mxCell>
        <mxCell id="6_WvhmP-etYB8GviKGAq-8" style="edgeStyle=none;curved=1;rounded=0;orthogonalLoop=1;jettySize=auto;html=1;exitX=0.5;exitY=1;exitDx=0;exitDy=0;entryX=0.5;entryY=0;entryDx=0;entryDy=0;fontSize=12;startSize=8;endSize=8;" edge="1" parent="1" source="6_WvhmP-etYB8GviKGAq-5" target="6_WvhmP-etYB8GviKGAq-7">
          <mxGeometry relative="1" as="geometry" />
        </mxCell>
        <mxCell id="6_WvhmP-etYB8GviKGAq-5" value="Ввод чисел" style="rounded=1;whiteSpace=wrap;html=1;" vertex="1" parent="1">
          <mxGeometry x="75" y="42" width="120" height="60" as="geometry" />
        </mxCell>
        <mxCell id="6_WvhmP-etYB8GviKGAq-14" style="edgeStyle=none;curved=1;rounded=0;orthogonalLoop=1;jettySize=auto;html=1;exitX=1;exitY=0.5;exitDx=0;exitDy=0;entryX=0.5;entryY=0;entryDx=0;entryDy=0;fontSize=12;startSize=8;endSize=8;" edge="1" parent="1" source="6_WvhmP-etYB8GviKGAq-7" target="6_WvhmP-etYB8GviKGAq-12">
          <mxGeometry relative="1" as="geometry" />
        </mxCell>
        <mxCell id="6_WvhmP-etYB8GviKGAq-15" style="edgeStyle=none;curved=1;rounded=0;orthogonalLoop=1;jettySize=auto;html=1;exitX=0.5;exitY=1;exitDx=0;exitDy=0;entryX=0.5;entryY=0;entryDx=0;entryDy=0;fontSize=12;startSize=8;endSize=8;" edge="1" parent="1" source="6_WvhmP-etYB8GviKGAq-19" target="6_WvhmP-etYB8GviKGAq-11">
          <mxGeometry relative="1" as="geometry" />
        </mxCell>
        <mxCell id="6_WvhmP-etYB8GviKGAq-16" style="edgeStyle=none;curved=1;rounded=0;orthogonalLoop=1;jettySize=auto;html=1;exitX=0;exitY=0.5;exitDx=0;exitDy=0;entryX=0.5;entryY=0;entryDx=0;entryDy=0;fontSize=12;startSize=8;endSize=8;" edge="1" parent="1" source="6_WvhmP-etYB8GviKGAq-7" target="6_WvhmP-etYB8GviKGAq-10">
          <mxGeometry relative="1" as="geometry" />
        </mxCell>
        <mxCell id="6_WvhmP-etYB8GviKGAq-7" value="" style="rhombus;whiteSpace=wrap;html=1;" vertex="1" parent="1">
          <mxGeometry x="70.5" y="118" width="129" height="106" as="geometry" />
        </mxCell>
        <mxCell id="6_WvhmP-etYB8GviKGAq-9" value="Выбор стратегии сортировки" style="text;html=1;align=center;verticalAlign=middle;whiteSpace=wrap;rounded=0;fontSize=16;" vertex="1" parent="1">
          <mxGeometry x="105" y="150" width="60" height="30" as="geometry" />
        </mxCell>
        <mxCell id="6_WvhmP-etYB8GviKGAq-28" style="edgeStyle=none;curved=1;rounded=0;orthogonalLoop=1;jettySize=auto;html=1;exitX=0.5;exitY=1;exitDx=0;exitDy=0;entryX=0.5;entryY=0;entryDx=0;entryDy=0;fontSize=12;startSize=8;endSize=8;" edge="1" parent="1" source="6_WvhmP-etYB8GviKGAq-10" target="6_WvhmP-etYB8GviKGAq-26">
          <mxGeometry relative="1" as="geometry" />
        </mxCell>
        <mxCell id="6_WvhmP-etYB8GviKGAq-10" value="" style="rounded=1;whiteSpace=wrap;html=1;" vertex="1" parent="1">
          <mxGeometry x="-73" y="269" width="120" height="60" as="geometry" />
        </mxCell>
        <mxCell id="6_WvhmP-etYB8GviKGAq-29" style="edgeStyle=none;curved=1;rounded=0;orthogonalLoop=1;jettySize=auto;html=1;exitX=0.5;exitY=1;exitDx=0;exitDy=0;entryX=0.5;entryY=0;entryDx=0;entryDy=0;fontSize=12;startSize=8;endSize=8;" edge="1" parent="1" source="6_WvhmP-etYB8GviKGAq-11" target="6_WvhmP-etYB8GviKGAq-27">
          <mxGeometry relative="1" as="geometry" />
        </mxCell>
        <mxCell id="6_WvhmP-etYB8GviKGAq-11" value="" style="rounded=1;whiteSpace=wrap;html=1;" vertex="1" parent="1">
          <mxGeometry x="75" y="269" width="120" height="60" as="geometry" />
        </mxCell>
        <mxCell id="6_WvhmP-etYB8GviKGAq-52" style="edgeStyle=none;curved=1;rounded=0;orthogonalLoop=1;jettySize=auto;html=1;exitX=0.5;exitY=1;exitDx=0;exitDy=0;entryX=0.5;entryY=0;entryDx=0;entryDy=0;fontSize=12;startSize=8;endSize=8;" edge="1" parent="1" source="6_WvhmP-etYB8GviKGAq-12" target="6_WvhmP-etYB8GviKGAq-50">
          <mxGeometry relative="1" as="geometry" />
        </mxCell>
        <mxCell id="6_WvhmP-etYB8GviKGAq-12" value="Ошибка" style="rounded=1;whiteSpace=wrap;html=1;" vertex="1" parent="1">
          <mxGeometry x="223" y="269" width="120" height="60" as="geometry" />
        </mxCell>
        <mxCell id="6_WvhmP-etYB8GviKGAq-17" value="1" style="text;html=1;align=center;verticalAlign=middle;whiteSpace=wrap;rounded=0;fontSize=16;" vertex="1" parent="1">
          <mxGeometry x="-43" y="228" width="60" height="30" as="geometry" />
        </mxCell>
        <mxCell id="6_WvhmP-etYB8GviKGAq-18" value="" style="edgeStyle=none;curved=1;rounded=0;orthogonalLoop=1;jettySize=auto;html=1;exitX=0.5;exitY=1;exitDx=0;exitDy=0;entryX=0.5;entryY=0;entryDx=0;entryDy=0;fontSize=12;startSize=8;endSize=8;" edge="1" parent="1" source="6_WvhmP-etYB8GviKGAq-7" target="6_WvhmP-etYB8GviKGAq-19">
          <mxGeometry relative="1" as="geometry">
            <mxPoint x="135" y="224" as="sourcePoint" />
            <mxPoint x="135" y="258" as="targetPoint" />
          </mxGeometry>
        </mxCell>
        <mxCell id="6_WvhmP-etYB8GviKGAq-19" value="2" style="text;html=1;align=center;verticalAlign=middle;whiteSpace=wrap;rounded=0;fontSize=16;" vertex="1" parent="1">
          <mxGeometry x="105" y="228" width="60" height="30" as="geometry" />
        </mxCell>
        <mxCell id="6_WvhmP-etYB8GviKGAq-23" value="Ничего" style="text;html=1;align=center;verticalAlign=middle;whiteSpace=wrap;rounded=0;fontSize=16;" vertex="1" parent="1">
          <mxGeometry x="271" y="231" width="60" height="30" as="geometry" />
        </mxCell>
        <mxCell id="6_WvhmP-etYB8GviKGAq-24" value="BubbleSort" style="text;html=1;align=center;verticalAlign=middle;whiteSpace=wrap;rounded=0;fontSize=16;" vertex="1" parent="1">
          <mxGeometry x="102" y="284" width="60" height="30" as="geometry" />
        </mxCell>
        <mxCell id="6_WvhmP-etYB8GviKGAq-25" value="QuickSort" style="text;html=1;align=center;verticalAlign=middle;whiteSpace=wrap;rounded=0;fontSize=16;" vertex="1" parent="1">
          <mxGeometry x="-43" y="284" width="60" height="30" as="geometry" />
        </mxCell>
        <mxCell id="6_WvhmP-etYB8GviKGAq-32" style="edgeStyle=none;curved=1;rounded=0;orthogonalLoop=1;jettySize=auto;html=1;exitX=0.75;exitY=1;exitDx=0;exitDy=0;entryX=0.25;entryY=0;entryDx=0;entryDy=0;fontSize=12;startSize=8;endSize=8;" edge="1" parent="1" source="6_WvhmP-etYB8GviKGAq-26" target="6_WvhmP-etYB8GviKGAq-31">
          <mxGeometry relative="1" as="geometry" />
        </mxCell>
        <mxCell id="6_WvhmP-etYB8GviKGAq-26" value="Выбор стратегии QuickSort&amp;nbsp;" style="rounded=1;whiteSpace=wrap;html=1;" vertex="1" parent="1">
          <mxGeometry x="-73" y="378" width="120" height="60" as="geometry" />
        </mxCell>
        <mxCell id="6_WvhmP-etYB8GviKGAq-33" style="edgeStyle=none;curved=1;rounded=0;orthogonalLoop=1;jettySize=auto;html=1;exitX=0.25;exitY=1;exitDx=0;exitDy=0;entryX=0.75;entryY=0;entryDx=0;entryDy=0;fontSize=12;startSize=8;endSize=8;" edge="1" parent="1" source="6_WvhmP-etYB8GviKGAq-27" target="6_WvhmP-etYB8GviKGAq-31">
          <mxGeometry relative="1" as="geometry" />
        </mxCell>
        <mxCell id="6_WvhmP-etYB8GviKGAq-27" value="" style="rounded=1;whiteSpace=wrap;html=1;" vertex="1" parent="1">
          <mxGeometry x="75" y="378" width="120" height="60" as="geometry" />
        </mxCell>
        <mxCell id="6_WvhmP-etYB8GviKGAq-30" value="&lt;span style=&quot;font-size: 12px;&quot;&gt;Выбор стратегии Bubble Sort&lt;/span&gt;" style="text;html=1;align=center;verticalAlign=middle;whiteSpace=wrap;rounded=0;fontSize=16;" vertex="1" parent="1">
          <mxGeometry x="86.5" y="392.5" width="91" height="31" as="geometry" />
        </mxCell>
        <mxCell id="6_WvhmP-etYB8GviKGAq-37" style="edgeStyle=none;curved=1;rounded=0;orthogonalLoop=1;jettySize=auto;html=1;exitX=0.5;exitY=1;exitDx=0;exitDy=0;entryX=0.5;entryY=0;entryDx=0;entryDy=0;fontSize=12;startSize=8;endSize=8;" edge="1" parent="1" source="6_WvhmP-etYB8GviKGAq-31" target="6_WvhmP-etYB8GviKGAq-35">
          <mxGeometry relative="1" as="geometry" />
        </mxCell>
        <mxCell id="6_WvhmP-etYB8GviKGAq-31" value="" style="rounded=1;whiteSpace=wrap;html=1;" vertex="1" parent="1">
          <mxGeometry y="482" width="120" height="60" as="geometry" />
        </mxCell>
        <mxCell id="6_WvhmP-etYB8GviKGAq-34" value="Создание SortCommand" style="text;html=1;align=center;verticalAlign=middle;whiteSpace=wrap;rounded=0;fontSize=16;" vertex="1" parent="1">
          <mxGeometry x="30" y="497" width="60" height="30" as="geometry" />
        </mxCell>
        <mxCell id="6_WvhmP-etYB8GviKGAq-39" style="edgeStyle=none;curved=1;rounded=0;orthogonalLoop=1;jettySize=auto;html=1;exitX=0.5;exitY=1;exitDx=0;exitDy=0;entryX=0.5;entryY=0;entryDx=0;entryDy=0;fontSize=12;startSize=8;endSize=8;" edge="1" parent="1" source="6_WvhmP-etYB8GviKGAq-35" target="6_WvhmP-etYB8GviKGAq-38">
          <mxGeometry relative="1" as="geometry" />
        </mxCell>
        <mxCell id="6_WvhmP-etYB8GviKGAq-35" value="" style="rounded=1;whiteSpace=wrap;html=1;" vertex="1" parent="1">
          <mxGeometry y="574" width="120" height="60" as="geometry" />
        </mxCell>
        <mxCell id="6_WvhmP-etYB8GviKGAq-36" value="Выполнение SortCommand" style="text;html=1;align=center;verticalAlign=middle;whiteSpace=wrap;rounded=0;fontSize=16;" vertex="1" parent="1">
          <mxGeometry x="30" y="587" width="60" height="30" as="geometry" />
        </mxCell>
        <mxCell id="6_WvhmP-etYB8GviKGAq-42" style="edgeStyle=none;curved=1;rounded=0;orthogonalLoop=1;jettySize=auto;html=1;exitX=0;exitY=0.75;exitDx=0;exitDy=0;entryX=0.5;entryY=0;entryDx=0;entryDy=0;fontSize=12;startSize=8;endSize=8;" edge="1" parent="1" source="6_WvhmP-etYB8GviKGAq-38" target="6_WvhmP-etYB8GviKGAq-40">
          <mxGeometry relative="1" as="geometry" />
        </mxCell>
        <mxCell id="6_WvhmP-etYB8GviKGAq-43" style="edgeStyle=none;curved=1;rounded=0;orthogonalLoop=1;jettySize=auto;html=1;exitX=0.5;exitY=1;exitDx=0;exitDy=0;entryX=0.5;entryY=0;entryDx=0;entryDy=0;fontSize=12;startSize=8;endSize=8;" edge="1" parent="1" source="6_WvhmP-etYB8GviKGAq-38" target="6_WvhmP-etYB8GviKGAq-41">
          <mxGeometry relative="1" as="geometry" />
        </mxCell>
        <mxCell id="6_WvhmP-etYB8GviKGAq-38" value="Sort Array" style="rounded=1;whiteSpace=wrap;html=1;" vertex="1" parent="1">
          <mxGeometry y="668" width="120" height="60" as="geometry" />
        </mxCell>
        <mxCell id="6_WvhmP-etYB8GviKGAq-54" style="edgeStyle=none;curved=1;rounded=0;orthogonalLoop=1;jettySize=auto;html=1;exitX=0.5;exitY=1;exitDx=0;exitDy=0;entryX=0.5;entryY=0;entryDx=0;entryDy=0;fontSize=12;startSize=8;endSize=8;" edge="1" parent="1" source="6_WvhmP-etYB8GviKGAq-40" target="6_WvhmP-etYB8GviKGAq-48">
          <mxGeometry relative="1" as="geometry" />
        </mxCell>
        <mxCell id="6_WvhmP-etYB8GviKGAq-40" value="" style="rhombus;whiteSpace=wrap;html=1;" vertex="1" parent="1">
          <mxGeometry x="-223" y="789" width="147" height="80" as="geometry" />
        </mxCell>
        <mxCell id="6_WvhmP-etYB8GviKGAq-53" style="edgeStyle=none;curved=1;rounded=0;orthogonalLoop=1;jettySize=auto;html=1;exitX=0.5;exitY=1;exitDx=0;exitDy=0;entryX=0.5;entryY=0;entryDx=0;entryDy=0;fontSize=12;startSize=8;endSize=8;" edge="1" parent="1" source="6_WvhmP-etYB8GviKGAq-41" target="6_WvhmP-etYB8GviKGAq-49">
          <mxGeometry relative="1" as="geometry" />
        </mxCell>
        <mxCell id="6_WvhmP-etYB8GviKGAq-41" value="" style="rhombus;whiteSpace=wrap;html=1;" vertex="1" parent="1">
          <mxGeometry x="-13.5" y="789" width="147" height="80" as="geometry" />
        </mxCell>
        <mxCell id="6_WvhmP-etYB8GviKGAq-44" value="QuickSort" style="text;html=1;align=center;verticalAlign=middle;whiteSpace=wrap;rounded=0;fontSize=16;" vertex="1" parent="1">
          <mxGeometry x="-179" y="739" width="60" height="30" as="geometry" />
        </mxCell>
        <mxCell id="6_WvhmP-etYB8GviKGAq-45" value="BubbleSort" style="text;html=1;align=center;verticalAlign=middle;whiteSpace=wrap;rounded=0;fontSize=16;" vertex="1" parent="1">
          <mxGeometry x="73.5" y="751" width="60" height="30" as="geometry" />
        </mxCell>
        <mxCell id="6_WvhmP-etYB8GviKGAq-46" value="QuickSortArray" style="text;html=1;align=center;verticalAlign=middle;whiteSpace=wrap;rounded=0;fontSize=16;" vertex="1" parent="1">
          <mxGeometry x="-179.5" y="814" width="60" height="30" as="geometry" />
        </mxCell>
        <mxCell id="6_WvhmP-etYB8GviKGAq-47" value="BubbleSortArray" style="text;html=1;align=center;verticalAlign=middle;whiteSpace=wrap;rounded=0;fontSize=16;" vertex="1" parent="1">
          <mxGeometry x="30" y="814" width="60" height="30" as="geometry" />
        </mxCell>
        <mxCell id="6_WvhmP-etYB8GviKGAq-57" style="edgeStyle=none;curved=1;rounded=0;orthogonalLoop=1;jettySize=auto;html=1;exitX=0.75;exitY=1;exitDx=0;exitDy=0;entryX=0;entryY=0;entryDx=0;entryDy=0;fontSize=12;startSize=8;endSize=8;" edge="1" parent="1" source="6_WvhmP-etYB8GviKGAq-48" target="6_WvhmP-etYB8GviKGAq-56">
          <mxGeometry relative="1" as="geometry" />
        </mxCell>
        <mxCell id="6_WvhmP-etYB8GviKGAq-48" value="Вывод сортированного массива" style="rounded=1;whiteSpace=wrap;html=1;" vertex="1" parent="1">
          <mxGeometry x="-209.5" y="895" width="120" height="60" as="geometry" />
        </mxCell>
        <mxCell id="6_WvhmP-etYB8GviKGAq-49" value="" style="rounded=1;whiteSpace=wrap;html=1;" vertex="1" parent="1">
          <mxGeometry y="895" width="120" height="60" as="geometry" />
        </mxCell>
        <mxCell id="6_WvhmP-etYB8GviKGAq-50" value="" style="rounded=1;whiteSpace=wrap;html=1;" vertex="1" parent="1">
          <mxGeometry x="223" y="378" width="120" height="60" as="geometry" />
        </mxCell>
        <mxCell id="6_WvhmP-etYB8GviKGAq-51" value="Конец" style="text;html=1;align=center;verticalAlign=middle;whiteSpace=wrap;rounded=0;fontSize=16;" vertex="1" parent="1">
          <mxGeometry x="253" y="394" width="60" height="30" as="geometry" />
        </mxCell>
        <mxCell id="6_WvhmP-etYB8GviKGAq-55" value="Вывод сортированного масива" style="text;html=1;align=center;verticalAlign=middle;whiteSpace=wrap;rounded=0;fontSize=16;" vertex="1" parent="1">
          <mxGeometry x="30" y="910" width="60" height="30" as="geometry" />
        </mxCell>
        <mxCell id="6_WvhmP-etYB8GviKGAq-56" value="Конец" style="rounded=1;whiteSpace=wrap;html=1;" vertex="1" parent="1">
          <mxGeometry x="-107" y="986" width="120" height="60" as="geometry" />
        </mxCell>
        <mxCell id="6_WvhmP-etYB8GviKGAq-58" style="edgeStyle=none;curved=1;rounded=0;orthogonalLoop=1;jettySize=auto;html=1;exitX=0.25;exitY=1;exitDx=0;exitDy=0;entryX=0.95;entryY=0.033;entryDx=0;entryDy=0;entryPerimeter=0;fontSize=12;startSize=8;endSize=8;" edge="1" parent="1" source="6_WvhmP-etYB8GviKGAq-49" target="6_WvhmP-etYB8GviKGAq-56">
          <mxGeometry relative="1" as="geometry" />
        </mxCell>
      </root>
    </mxGraphModel>
  </diagram>
</mxfile>
